# xmcd CD database file
#
# Track frame offsets:
#	150
#	13289
#	26796
#	40142
#	53608
#	66500
#	80532
#	92713
#	106116
#	116260
#	126399
#	135052
#	146110
#	157962
#	172168
#
# Disc length: 2495 seconds
#
# Revision: 0
# Processed by: cddbd v1.5.2PL0 Copyright (c) Steve Scherf et al.
# Submitted via: CDex 1.70beta2
#
DISCID=c909bd0f
DTITLE=Sidney Bechet - Sidney Bechet and The New Orleans Feetwarmers
DYEAR=1900
DGENRE=Jazz
TTITLE0=Blues For You, Johnny
TTITLE1=Ain't Misbehavin' 1
TTITLE2=Ain't Misbehavin' 2
TTITLE3=Save It Pretty Mama
TTITLE4=Coal Black Shine
TTITLE5=Egyptian Fantasy
TTITLE6=Baby, Won't You Please Come Home
TTITLE7=Slippin# And Slidin'
TTITLE8=The Sheik Of Araby 1
TTITLE9=The Sheik Of Araby 2
TTITLE10=Blues Of Bechet
TTITLE11=Swing Parade
TTITLE12=I Know That You Know
TTITLE13=When It's Sleepy Time Down South
TTITLE14=I Ain't Gonna Give Nobody None O'This Jelly Roll
EXTD=
EXTT0=
EXTT1=
EXTT2=
EXTT3=
EXTT4=
EXTT5=
EXTT6=
EXTT7=
EXTT8=
EXTT9=
EXTT10=
EXTT11=
EXTT12=
EXTT13=
EXTT14=
PLAYORDER=
